<svg xmlns="http://www.w3.org/2000/svg" width="367" height="90" fill="none" viewBox="0 0 367 90"><rect width="5.58" height="5.58" x="94.45" y="15.09" fill="#EB5757" rx="2.79" transform="rotate(-25 94.4502 15.0898)"/><rect width="2.79" height="2.79" x="6.095" y="19.477" fill="#2D9CDB" rx="1.395" transform="rotate(-25 6.09473 19.4766)"/><rect width="7.811" height="7.811" x="179.805" y="3.668" fill="#F2C94C" rx="3.906" transform="rotate(-25 179.805 3.66797)"/><rect width="4.464" height="4.464" x="54.079" y="60.098" fill="#2D9CDB" rx="2.232" transform="rotate(-25 54.0791 60.0977)"/><rect width="5.58" height="5.58" x="266.115" y="81.795" fill="#27AE60" rx="2.79" transform="rotate(-25 266.115 81.7949)"/><rect width="4.464" height="4.464" x="224.441" y="31.639" fill="#EB5757" rx="2.232" transform="rotate(-25 224.441 31.6387)"/><rect width="2.79" height="2.79" x=".701" y="37.578" fill="#2D9CDB" rx="1.395" transform="rotate(-25 0.701172 37.5781)"/><rect width="7.811" height="7.811" x="135.727" y="45.279" fill="#6FCF97" rx="3.906" transform="rotate(-25 135.727 45.2793)"/><path fill="#56CCF2" d="M22.3817 77.2493C21.8608 76.1322 22.3441 74.8043 23.4612 74.2834C24.5783 73.7624 25.9062 74.2457 26.4271 75.3629C26.9481 76.48 26.4647 77.8079 25.3476 78.3288C24.2305 78.8497 22.9026 78.3664 22.3817 77.2493Z"/><rect width="4.464" height="4.464" x="360.77" y="37.592" fill="#585357" rx="2.232" transform="rotate(-25 360.77 37.5918)"/><rect width="7.811" height="7.811" x="272.054" y="51.23" fill="#9B51E0" rx="3.906" transform="rotate(-25 272.054 51.2305)"/><path fill="#F2994A" d="M73.9505 50.2488L75.0692 56.5936L69.015 54.3901L73.9505 50.2488Z"/><path fill="#F2C94C" d="M113.753 82.0744L120.098 83.1931L115.957 88.1285L113.753 82.0744Z"/><circle cx="197.66" cy="59.772" r="2.79" fill="#2F80ED"/><circle cx="343.658" cy="52.148" r="4.65" fill="#F2C94C"/></svg>