<svg xmlns="http://www.w3.org/2000/svg" fill="none" viewBox="0 0 35 35"><path fill="#8C3123" d="M5.24956 6.07227L2.91675 7.2389V27.7143L5.24956 28.8742L5.26358 28.8573V6.08833L5.24956 6.07227Z"/><path fill="#E05243" d="M17.7345 25.9023L5.24976 28.8742V6.07227L17.7345 8.97934V25.9023Z"/><path fill="#8C3123" d="M12.0994 21.2497L17.395 21.9238L17.4283 21.8471L17.458 13.1636L17.395 13.0957L12.0994 13.7601V21.2497"/><path fill="#8C3123" d="M17.395 25.9357L29.5399 28.8805L29.559 28.8501L29.5587 6.09263L29.5394 6.07227L17.395 9.01271V25.9357"/><path fill="#E05243" d="M22.6922 21.2497L17.395 21.9238V13.0957L22.6922 13.7601V21.2497Z"/><path fill="#5E1F18" d="M22.6921 10.1382L17.395 11.1037L12.0994 10.1382L17.3883 8.75195L22.6921 10.1382Z"/><path fill="#F2B0A9" d="M22.6921 24.8621L17.395 23.8904L12.0994 24.8621L17.3886 26.3386L22.6921 24.8621Z"/><path fill="#8C3123" d="M12.0994 10.1383L17.395 8.82778L17.4379 8.81455V0.0354039L17.395 0L12.0994 2.64828V10.1383Z"/><path fill="#E05243" d="M22.6922 10.1383L17.395 8.82778V0L22.6922 2.64828V10.1383Z"/><path fill="#8C3123" d="M17.3944 35.0001L12.0981 32.3527V24.8628L17.3944 26.1729L17.4723 26.2614L17.4511 34.8473L17.3944 35.0001Z"/><path fill="#E05243" d="M17.395 34.9996L22.6917 32.3522V24.8623L17.395 26.1724V34.9996V34.9996ZM29.5399 6.07227L31.8737 7.2389V27.7143L29.5399 28.8805V6.07227Z"/></svg>