<svg xmlns="http://www.w3.org/2000/svg" width="20" height="20" fill="none" viewBox="0 0 20 20"><circle cx="10" cy="10" r="10" fill="#B4BBC6"/><path stroke="#000" stroke-linecap="round" stroke-linejoin="round" stroke-width="1.333" d="M10.0001 10.8334C10.4603 10.8334 10.8334 10.4603 10.8334 10.0001C10.8334 9.53984 10.4603 9.16675 10.0001 9.16675C9.53984 9.16675 9.16675 9.53984 9.16675 10.0001C9.16675 10.4603 9.53984 10.8334 10.0001 10.8334Z"/><path stroke="#000" stroke-linecap="round" stroke-linejoin="round" stroke-width="1.333" d="M15.8333 10.8334C16.2936 10.8334 16.6667 10.4603 16.6667 10.0001C16.6667 9.53984 16.2936 9.16675 15.8333 9.16675C15.3731 9.16675 15 9.53984 15 10.0001C15 10.4603 15.3731 10.8334 15.8333 10.8334Z"/><path stroke="#000" stroke-linecap="round" stroke-linejoin="round" stroke-width="1.333" d="M4.16671 10.8334C4.62694 10.8334 5.00004 10.4603 5.00004 10.0001C5.00004 9.53984 4.62694 9.16675 4.16671 9.16675C3.70647 9.16675 3.33337 9.53984 3.33337 10.0001C3.33337 10.4603 3.70647 10.8334 4.16671 10.8334Z"/></svg>