<svg xmlns="http://www.w3.org/2000/svg" width="29" height="28" fill="none" viewBox="0 0 29 28"><rect width="27" height="27" x="1.035" y=".5" fill="#E6EDFE" rx="5.5"/><path fill="#3E63DD" fill-rule="evenodd" d="M13.3672 9.91667C13.3672 9.27233 13.8895 8.75 14.5339 8.75C15.1782 8.75 15.7005 9.27233 15.7005 9.91667C15.7005 10.561 15.1782 11.0833 14.5339 11.0833C13.8895 11.0833 13.3672 10.561 13.3672 9.91667ZM13.3672 14C13.3672 13.3557 13.8895 12.8333 14.5339 12.8333C15.1782 12.8333 15.7005 13.3557 15.7005 14C15.7005 14.6443 15.1782 15.1667 14.5339 15.1667C13.8895 15.1667 13.3672 14.6443 13.3672 14ZM13.3672 18.0833C13.3672 17.439 13.8895 16.9167 14.5339 16.9167C15.1782 16.9167 15.7005 17.439 15.7005 18.0833C15.7005 18.7277 15.1782 19.25 14.5339 19.25C13.8895 19.25 13.3672 18.7277 13.3672 18.0833Z" clip-rule="evenodd"/><rect width="27" height="27" x="1.035" y=".5" stroke="#3E63DD" rx="5.5"/></svg>