<svg xmlns="http://www.w3.org/2000/svg" width="15" height="14" fill="none" viewBox="0 0 15 14"><circle cx="7.506" cy="7.161" r="6.667" fill="#3E63DD" opacity=".4"/><path fill="#3E63DD" d="M8.1722 3.8278C8.1722 4.19599 7.87372 4.49447 7.50553 4.49447C7.13734 4.49447 6.83887 4.19599 6.83887 3.8278C6.83887 3.45961 7.13734 3.16113 7.50553 3.16113C7.87372 3.16113 8.1722 3.45961 8.1722 3.8278Z"/><path fill="#3E63DD" fill-rule="evenodd" d="M6.33887 5.82788C6.33887 5.55174 6.56272 5.32788 6.83887 5.32788H7.50553C7.78168 5.32788 8.00553 5.55174 8.00553 5.82788V10.4945C8.00553 10.7707 7.78168 10.9945 7.50553 10.9945C7.22939 10.9945 7.00553 10.7707 7.00553 10.4945V6.32788H6.83887C6.56272 6.32788 6.33887 6.10402 6.33887 5.82788Z" clip-rule="evenodd"/></svg>