<svg xmlns="http://www.w3.org/2000/svg" width="40" height="40" fill="none" viewBox="0 0 40 40"><circle cx="20" cy="20" r="16.667" fill="#C1C8CD" opacity=".4"/><path fill="#fff" d="M21.6667 11.6667C21.6667 12.5871 20.9205 13.3333 20 13.3333C19.0795 13.3333 18.3333 12.5871 18.3333 11.6667C18.3333 10.7462 19.0795 10 20 10C20.9205 10 21.6667 10.7462 21.6667 11.6667Z"/><path fill="#fff" fill-rule="evenodd" d="M17.0833 16.6665C17.0833 15.9761 17.643 15.4165 18.3333 15.4165H20C20.6904 15.4165 21.25 15.9761 21.25 16.6665V28.3332C21.25 29.0235 20.6904 29.5832 20 29.5832C19.3096 29.5832 18.75 29.0235 18.75 28.3332V17.9165H18.3333C17.643 17.9165 17.0833 17.3569 17.0833 16.6665Z" clip-rule="evenodd"/></svg>