<svg xmlns="http://www.w3.org/2000/svg" xmlns:xlink="http://www.w3.org/1999/xlink" width="189" height="294" version="1.1" viewBox="0 0 189 294"><title>marker</title><g id="Page-1" fill="none" fill-rule="evenodd" stroke="none" stroke-width="1"><g id="marker" fill-rule="nonzero"><path id="Shape" fill="#06BD5F" d="M94.667,0 C42.903,0 0.946,41.957 0.946,93.721 C0.946,116.043 8.795,136.51 21.837,152.599 C26.041,157.777 33.074,165.93 36.74,171.505 C57.849,203.574 84.93,250.148 92.822,288.369 C94.176,294.896 95.808,295.01 97.565,288.581 C103.194,267.972 117.793,222.942 147.942,175.824 C151.537,170.205 158.826,162.341 163.351,157.445 C169.905,150.347 175.36,142.221 179.505,133.361 C185.156,121.275 188.387,107.895 188.387,93.732 C188.387,41.962 146.43,0 94.667,0 Z M94.667,144.358 C65.775,144.358 42.354,120.937 42.354,92.045 C42.354,63.158 65.775,39.738 94.667,39.738 C123.559,39.738 146.98,63.159 146.98,92.045 C146.98,120.938 123.559,144.358 94.667,144.358 Z"/><ellipse id="Oval" cx="94.423" cy="92.952" fill="#06BD5F" rx="61" ry="60"/><ellipse id="Oval" cx="94.423" cy="90.452" fill="#003E1E" rx="34" ry="33.5"/></g></g></svg>