<svg xmlns="http://www.w3.org/2000/svg" width="24" height="25" fill="none" viewBox="0 0 24 25"><rect width="24" height="24" y=".043" fill="#E8F3EB" rx="6"/><path fill="#1E823B" d="M10.875 14.0902C8.93412 14.2567 7.5 14.844 7.5 15.543C7.5 16.3714 9.51472 17.043 12 17.043C14.4853 17.043 16.5 16.3714 16.5 15.543C16.5 14.844 15.0659 14.2567 13.125 14.0902V15.043C13.125 15.6643 12.6213 16.168 12 16.168C11.3787 16.168 10.875 15.6643 10.875 15.043V14.0902Z"/><path fill="#1E823B" fill-rule="evenodd" d="M12.375 9.99571C13.022 9.8292 13.5 9.24191 13.5 8.54297C13.5 7.71454 12.8284 7.04297 12 7.04297C11.1716 7.04297 10.5 7.71454 10.5 8.54297C10.5 9.24191 10.978 9.8292 11.625 9.99571V15.043C11.625 15.2501 11.7929 15.418 12 15.418C12.2071 15.418 12.375 15.2501 12.375 15.043V9.99571Z" clip-rule="evenodd"/></svg>