<svg xmlns="http://www.w3.org/2000/svg" width="20" height="20" fill="none" viewBox="0 0 20 20"><rect width="19" height="19" x=".5" y=".5" fill="#fff" rx="3.5"/><path fill="#121212" fill-rule="evenodd" d="M9 6.5C9 5.94772 9.44772 5.5 10 5.5C10.5523 5.5 11 5.94772 11 6.5C11 7.05228 10.5523 7.5 10 7.5C9.44772 7.5 9 7.05228 9 6.5ZM9 10C9 9.44772 9.44772 9 10 9C10.5523 9 11 9.44772 11 10C11 10.5523 10.5523 11 10 11C9.44772 11 9 10.5523 9 10ZM9 13.5C9 12.9477 9.44772 12.5 10 12.5C10.5523 12.5 11 12.9477 11 13.5C11 14.0523 10.5523 14.5 10 14.5C9.44772 14.5 9 14.0523 9 13.5Z" clip-rule="evenodd"/><rect width="19" height="19" x=".5" y=".5" stroke="#D7DBDF" rx="3.5"/></svg>