<svg xmlns="http://www.w3.org/2000/svg" xmlns:xlink="http://www.w3.org/1999/xlink" width="256" height="256" preserveAspectRatio="xMidYMid" version="1.1" viewBox="0 -12.5 256 256"><defs><path id="path-1" d="M252.925854,103.237077 L200.327344,11.759667 C196.302579,4.62225703 188.80054,0.148424726 180.607902,0 L75.3908814,0 C67.1970912,0.14438548 59.6931984,4.61932363 55.6714398,11.759667 L3.05292985,102.997083 C-1.01764328,110.080373 -1.01764328,118.793146 3.05292985,125.876436 L55.6514404,217.87383 C59.6319755,225.112707 67.1159052,229.735134 75.370882,230.053486 L180.587903,230.053486 C188.842442,229.770144 196.339809,225.166896 200.327344,217.933829 L252.925854,126.456419 C257.024715,119.259311 257.024715,110.434185 252.925854,103.237077 Z"/></defs><g><mask id="mask-2" fill="#fff"><use xlink:href="#path-1"/></mask><path fill="#4285F4" fill-rule="nonzero" d="M252.925854,103.237077 L200.327344,11.759667 C196.302579,4.62225703 188.80054,0.148424726 180.607902,0 L75.3908814,0 C67.1970912,0.14438548 59.6931984,4.61932363 55.6714398,11.759667 L3.05292985,102.997083 C-1.01764328,110.080373 -1.01764328,118.793146 3.05292985,125.876436 L55.6514404,217.87383 C59.6319755,225.112707 67.1159052,229.735134 75.370882,230.053486 L180.587903,230.053486 C188.842442,229.770144 196.339809,225.166896 200.327344,217.933829 L252.925854,126.456419 C257.024715,119.259311 257.024715,110.434185 252.925854,103.237077 Z" mask="url(#mask-2)"/><path fill="#000" fill-rule="nonzero" d="M187.167605,84.731603 L179.915711,92.6409485 L181.549379,139.638797 L174.676019,149.60019 L170.691462,145.615633 L174.357254,145.615633 L174.357254,129.318795 L156.765435,111.726976 L143.468746,118.373047 L99.3678929,74.1725271 L78.1302045,85.5484371 L75.500397,107.583037 L82.9515184,147.906753 L93.7496677,158.485752 L88.8287399,165.478649 L153.076098,231.236816 L179.915711,231.236816 C188.138614,230.95456 197.044276,225.565698 201.016528,218.360352 L244.795336,142.356934 L187.167605,84.731603 Z" mask="url(#mask-2)" opacity=".07"/><polygon fill="#FFF" fill-rule="nonzero" points="88.829 165.479 99.368 154.939 83.569 139.141 83.569 89.971 99.368 74.173 88.829 63.633 67.731 84.732 67.731 144.38" mask="url(#mask-2)"/><circle cx="105.145" cy="114.556" r="7.471" fill="#FFF" fill-rule="nonzero" mask="url(#mask-2)"/><circle cx="127.499" cy="114.556" r="7.471" fill="#FFF" fill-rule="nonzero" mask="url(#mask-2)"/><circle cx="149.852" cy="114.556" r="7.471" fill="#FFF" fill-rule="nonzero" mask="url(#mask-2)"/><polygon fill="#FFF" fill-rule="nonzero" points="166.069 63.633 155.53 74.173 171.329 89.971 171.329 139.141 155.53 154.939 166.069 165.479 187.168 144.38 187.168 84.732" mask="url(#mask-2)"/></g></svg>